# xmcd
#
# Track frame offsets: 
#        150
#        14693
#        30835
#        46100
#        56177
#        70239
#        82050
#        94058
#        117489
#        140430
#        161843
#        180203
#        192922
#        201338
#        215626
#        228417
#        241896
#        255964
#
# Disc length: 3604 seconds
#
# Revision: 2
# Processed by: cddbd v1.5.2PL0 Copyright (c) Steve Scherf et al.
# Submitted via: ExactAudioCopy v0.99pb5
#
DISCID=f90e1212
DTITLE=Various Artist - American Country
DYEAR=1900
DGENRE=Country
TTITLE0=Take Me Home Country Roads
TTITLE1=You Are Still The One
TTITLE2=I Beg Your Pardon
TTITLE3=Bye Bye Love
TTITLE4=Annie's Song
TTITLE5=Always
TTITLE6=Glory Of Love
TTITLE7=Something About The Way You Took Tonight
TTITLE8=Blessed
TTITLE9=Have It Old You Lately
TTITLE10=Can You Feel The Love Tonight
TTITLE11=I Can't Stop Loving You
TTITLE12=From A Jack To A King
TTITLE13=The Sound Of Silence
TTITLE14=Blowing In The Wind
TTITLE15=Cotton Field
TTITLE16=Green Grean Grass Of Home
TTITLE17=Are You Lonesome Tonight
EXTD=
EXTT0=
EXTT1=
EXTT2=
EXTT3=
EXTT4=
EXTT5=
EXTT6=
EXTT7=
EXTT8=
EXTT9=
EXTT10=
EXTT11=
EXTT12=
EXTT13=
EXTT14=
EXTT15=
EXTT16=
EXTT17=
PLAYORDER=
